PathFileType	4	(X/Y/Z)	Patient4_TMGait_0pt7_02_left_38.trc.trc
DataRate	CameraRate	NumFrames	NumMarkers	Units	OrigDataRate	OrigDataStartFrame	OrigNumFrames
86.956521739130	86.956521739130	5	33	mm	86.956521739130	18	       141
Frame#	Time	Sacral			L.Shoulder			Chest			R.Shoulder			Neck			R.ASIS			L.ASIS			R.Thigh.Superior			R.Thigh.Lateral			R.Thigh.Inferior			R.Patella			L.Thigh.Superior			L.Thigh.Lateral			L.Thigh.Inferior			L.Patella			L.Shank.Superior			L.Shank.Lateral			L.Shank.Inferior			R.Shank.Superior			R.Shank.Lateral			R.Shank.Inferior			R.Heel			R.Midfoot.Superior			R.Midfoot.Lateral			R.Toe			L.Heel			L.Midfoot.Lateral			L.Midfoot.Superior			L.Toe			L.Elbow			L.Wrist			R.Elbow			R.Wrist			
		X1	Y1	Z1	X2	Y2	Z2	X3	Y3	Z3	X4	Y4	Z4	X5	Y5	Z5	X6	Y6	Z6	X7	Y7	Z7	X8	Y8	Z8	X9	Y9	Z9	X10	Y10	Z10	X11	Y11	Z11	X12	Y12	Z12	X13	Y13	Z13	X14	Y14	Z14	X15	Y15	Z15	X16	Y16	Z16	X17	Y17	Z17	X18	Y18	Z18	X19	Y19	Z19	X20	Y20	Z20	X21	Y21	Z21	X22	Y22	Z22	X23	Y23	Z23	X24	Y24	Z24	X25	Y25	Z25	X26	Y26	Z26	X27	Y27	Z27	X28	Y28	Z28	X29	Y29	Z29	X30	Y30	Z30	X31	Y31	Z31	X32	Y32	Z32	X33	Y33	Z33	

18	43.675500000000	773.836252759372	1027.078426638439	499.975813390207	1004.285888748242	1400.417325366038	275.544448234634	1107.004438039063	1330.259031317081	436.554714426816	1051.070157065745	1435.984702982087	604.398972298744	1024.323463471522	1474.656242126841	423.070857474828	985.805418413480	931.346320983271	617.194104896734	976.585415477027	944.832644895567	341.364497740894	991.762129514063	722.148851244214	589.532917882063	890.029567238665	629.707496873076	648.473225630906	954.095781606315	564.244629320044	567.806718091125	936.876003501953	477.946937148664	571.583205030588	1053.805724536304	794.120504797738	400.720121672423	1043.956218013805	665.556395856777	312.328112126699	1138.233599513050	613.666165675301	394.200475771633	1170.221053682820	536.156281762226	389.075485497500	1136.138851349924	459.215023997970	370.700534751503	1045.608117931769	355.337109115122	300.241595830025	1091.248648014532	234.374793046066	359.516866699233	896.392601166402	394.678882674152	579.667938156502	810.095618131536	304.063800134994	642.741331430066	834.355944001492	203.862094823125	578.645821792327	676.764523276044	49.713968057871	553.096196348846	851.071668743192	98.044321020822	586.052500829638	760.784405886763	40.492531044826	626.025767418914	968.690144457422	38.203775820718	613.663930002307	959.854631441871	78.398347599286	370.134944559387	1044.674053317384	70.674383008187	302.243102121338	1124.956926960118	131.940292808434	338.306384764673	1253.009929488688	75.669095673901	330.443044621356	837.098153805151	1080.171500267183	208.890510703825	783.441366118704	827.207433717598	244.377952446233	1129.349086650459	1118.060902723924	742.672185481533	1327.160722918733	1195.662360612623	616.597311236964	
19	43.687000000000	774.712211992139	1025.393264978949	498.147927666636	1004.478110919822	1399.242395900081	274.160995493878	1107.122536824488	1328.978450504777	435.123176579885	1051.119198526510	1434.624345237359	602.719824497704	1024.101748712875	1473.332690060772	421.823673365168	986.446930466161	929.896020171093	615.648027599053	977.570559785624	942.853537296028	339.780276979579	989.843762913837	720.040395645783	588.397333385163	887.006345159718	628.526888732038	647.518833201084	950.278343238011	562.296558411526	567.020628707056	931.970505686431	476.307427854085	570.834816857893	1052.666653229376	789.395885835779	398.544029787983	1040.661408920781	661.080049939481	309.694870380973	1134.037102028763	608.020113344895	391.688948708006	1165.427425711476	531.904746988338	386.675518117709	1133.800427801946	455.494781638956	368.372521451558	1048.093658712923	347.208149557821	298.241671589261	1098.804075113509	228.582163934527	358.690446659972	890.852088242318	393.339523613832	578.966143761079	803.832617675164	303.559931710692	642.341643684250	827.023897928624	203.131257740419	578.318713959408	668.540019661740	49.385540966158	553.081000217533	842.777689035654	97.958643064699	586.008735143725	752.561373570622	40.320747523613	626.035814473124	960.521698256070	38.223874597019	613.716430363842	973.599838604634	68.096056189159	370.366270811845	1058.963815452603	62.249868757234	302.838297309219	1137.226730071849	126.386871261909	338.640501845643	1267.197673702883	73.976507479076	331.937126401247	836.070102492508	1079.984772572403	207.485500899194	781.160389328295	827.307270052513	243.968470055179	1138.393089113356	1119.424190009923	738.451911234853	1329.464215940950	1207.261080056591	609.487738465800	
20	43.698500000000	775.752543066962	1023.418587834929	496.107678908069	1004.762850491286	1397.814016441396	272.572622346821	1107.305392085727	1327.564842887012	433.580206453054	1051.020683584377	1433.096745737205	600.899525419792	1023.869624387398	1471.819357392759	420.376602760853	987.327712673851	928.245445220464	613.999972971644	978.783071542236	940.633718859709	338.169495990621	988.279164530817	717.805690977769	587.178450348923	884.286902715350	627.211393309306	646.437956628297	946.795079895843	560.227764474702	566.152249839477	927.391250076713	474.460693872132	569.980338914963	1051.920097047138	784.342067452531	396.191595513273	1037.426068196003	656.332659679320	306.965600573844	1130.115607636849	602.173807424257	388.981575892811	1160.646469055934	527.272846645347	384.154131751179	1131.176237737073	451.406327443684	365.938796243125	1049.577710514082	339.454446118307	296.404064073350	1104.627929299808	223.037693456703	357.907856708902	885.538004779335	391.834329461586	578.172624322339	797.718717475769	302.993287970203	641.902454066401	819.756249789587	202.313552696174	577.976311590845	660.287634240403	49.022438770625	553.087784309511	834.469816449494	97.869191898252	585.989081014747	744.323445034992	40.108385039218	626.055737368519	952.348793004829	38.260502750654	613.782848804419	984.579993091513	59.325189657072	370.977716066937	1070.167850650617	54.890510262872	303.516529770829	1146.925948841920	121.064437226521	338.967441545324	1278.245471391149	71.572979628501	332.893069095125	835.489753977521	1079.306091570162	205.921886965554	779.813506461650	826.793803856993	243.321068204216	1146.503395580577	1120.578451347860	734.092869390178	1331.085508824819	1217.476470036676	602.916426654538	
21	43.710000000000	776.903634693444	1021.203951615700	493.861177677510	1005.117600444164	1396.167022594691	270.770412099571	1107.548395236695	1326.044478695179	431.902292736139	1050.787028323852	1431.413163429962	598.949215658546	1023.642480067637	1470.148587753689	418.719031578634	988.420552752350	926.423732469880	612.232332437524	980.176893708581	938.228654077469	336.515893465877	987.108463604032	715.476139835038	585.867478293295	881.934096152281	625.773592345487	645.212057469312	943.739974183006	558.059135152261	565.186796936187	923.258313811197	472.396696598382	569.003827644616	1051.646982220119	779.209720355861	393.703628556545	1034.415156970310	651.534832264708	304.246847628755	1126.693869688701	596.414194073869	386.141355538312	1156.141516829155	522.505810492042	381.613992797018	1128.496867077385	447.115651242284	363.522290036994	1050.146248564648	332.283500526114	294.778632757840	1108.640478450588	217.822414150184	357.228569638424	880.535401096809	390.177158859164	577.277123114491	791.826370619502	302.400600956071	641.419501011362	812.602467668557	201.443609339293	577.623035266599	652.015053548713	48.710484634661	553.135496877663	826.182945029774	97.783737453224	586.000815580690	736.082754493064	39.893001044190	626.098028209826	944.176149951309	38.309171683701	613.855364945101	992.480340541141	52.160816837158	371.904278460147	1078.016387070961	48.695391439543	304.229509364269	1153.824549727929	116.054668977699	339.325960144370	1285.977295221375	68.487160987232	333.346420803306	835.361387096188	1078.144938823434	204.185504907694	779.418247209879	825.667997103423	242.411571871084	1153.618554995494	1121.413483158366	729.670585381110	1332.112491161929	1226.271053965227	596.879179541441	
22	43.721500000000	778.097758227093	1018.833953431501	491.426513100884	1005.522971653715	1394.363400369257	268.754211421085	1107.849182653853	1324.458956106691	430.067638585115	1050.454140671833	1429.605823494285	596.882637447159	1023.449041820660	1468.375835623386	416.847957273994	989.677854197269	924.487274401665	610.325867077807	981.688837203731	935.721661818293	334.793447308685	986.358981019808	713.107572748344	584.451904668775	880.015975990025	624.240663011449	643.825944391797	941.217049160344	555.828831282328	564.110099954087	919.712106435197	470.118378707651	567.901713958049	1051.900048188049	774.281180680647	391.118711616121	1031.771675215397	646.923755483149	301.642520871100	1123.951985792049	591.024791503469	383.228866887403	1152.148511439751	517.858369362838	379.159527598650	1125.973472659307	442.811521284700	361.251646037101	1049.934893254350	325.894607895427	293.390383467537	1110.836090719120	213.027753134182	356.703852605601	875.947329955213	388.399248332147	576.277762765297	786.242489285003	301.837694800055	640.888964482335	805.629195649639	200.575530061167	577.265343410703	643.741099120004	48.572402266966	553.242550084812	817.968341139743	97.713179535020	586.048283685792	727.858927924794	39.732361459108	626.172032288368	936.011155679385	38.358601872986	613.919158632688	997.150905394112	46.602003028097	373.039870232393	1082.426535930431	43.720497717803	304.923059057453	1157.819489121432	111.462245594968	339.749023496006	1290.371058718329	64.856864024674	333.387943074187	835.695167389517	1076.537976805594	202.273846635950	779.991191472104	823.959624182327	241.209825900644	1159.688568018053	1121.831042125652	725.263868870502	1332.634373533693	1233.607655319772	591.366821049938	
